<svg width="390" height="307" viewBox="0 0 390 307" fill="none" xmlns="http://www.w3.org/2000/svg">
<path d="M29.4343 46.7569L126.905 166.494L166.315 0L184.795 211.687L212.573 145.226V211.687L268.923 46.7569L244.555 242.903L390 166.494L268.923 265.266H351.164L255.597 284.71L211.065 287.074L153.729 307L126.905 284.71L4.41301 269.849L87.7086 265.266L0 179.337L98.7299 228.46L29.4343 46.7569Z" fill="#FA9BD6"/>
<path d="M29.4343 46.7569L126.905 166.494L166.315 0L184.795 211.687L212.573 145.226V211.687L268.923 46.7569L244.555 242.903L390 166.494L268.923 265.266H351.164L255.597 284.71L211.065 287.074L153.729 307L126.905 284.71L4.41301 269.849L87.7086 265.266L0 179.337L98.7299 228.46L29.4343 46.7569Z" fill="#FF3559"/>
</svg>
